<?xml version="1.0" encoding="UTF-8" standalone="no"?>
<!-- Created with Inkscape (http://www.inkscape.org/) -->

<svg
   xmlns:dc="http://purl.org/dc/elements/1.1/"
   xmlns:cc="http://creativecommons.org/ns#"
   xmlns:rdf="http://www.w3.org/1999/02/22-rdf-syntax-ns#"
   xmlns:svg="http://www.w3.org/2000/svg"
   xmlns="http://www.w3.org/2000/svg"
   xmlns:sodipodi="http://sodipodi.sourceforge.net/DTD/sodipodi-0.dtd"
   xmlns:inkscape="http://www.inkscape.org/namespaces/inkscape"
   version="1.1"
   id="svg9477"
   xml:space="preserve"
   width="1122.52"
   height="793.70667"
   viewBox="0 0 1122.52 793.70667"
   sodipodi:docname="bxinp-em-blanc.svg"
   inkscape:version="0.92.4 (5da689c313, 2019-01-14)"><metadata
     id="metadata9483"><rdf:RDF><cc:Work
         rdf:about=""><dc:format>image/svg+xml</dc:format><dc:type
           rdf:resource="http://purl.org/dc/dcmitype/StillImage" /><dc:title></dc:title></cc:Work></rdf:RDF></metadata><defs
     id="defs9481"><clipPath
       clipPathUnits="userSpaceOnUse"
       id="clipPath9497"><path
         d="M 0,595.28 H 841.89 V 0 H 0 Z"
         id="path9495"
         inkscape:connector-curvature="0" /></clipPath></defs><sodipodi:namedview
     pagecolor="#ffffff"
     bordercolor="#666666"
     borderopacity="1"
     objecttolerance="10"
     gridtolerance="10"
     guidetolerance="10"
     inkscape:pageopacity="0"
     inkscape:pageshadow="2"
     inkscape:window-width="1920"
     inkscape:window-height="1001"
     id="namedview9479"
     showgrid="false"
     inkscape:pagecheckerboard="true"
     inkscape:zoom="0.29733907"
     inkscape:cx="50.059107"
     inkscape:cy="396.85333"
     inkscape:window-x="-9"
     inkscape:window-y="-9"
     inkscape:window-maximized="1"
     inkscape:current-layer="g9485" /><g
     id="g9485"
     inkscape:groupmode="layer"
     inkscape:label="bxinp-em-blanc(1)"
     transform="matrix(1.3333333,0,0,-1.3333333,0,793.70667)"><g
       id="g9487"
       transform="translate(497.665,325.7354)"><path
         d="m 0,0 20.748,-33.188 h 0.145 V 0 H 31.121 V -49.475 H 20.189 L -0.489,-16.351 H -0.626 V -49.475 H -10.858 V 0 Z"
         style="fill:white;fill-opacity:1;fill-rule:nonzero;stroke:none"
         id="path9489"
         inkscape:connector-curvature="0" /></g><g
       id="g9491"><g
         id="g9493"
         clip-path="url(#clipPath9497)"><g
           id="g9499"
           transform="translate(560.8145,325.7354)"><path
             d="m 0,0 c 3.107,0 5.752,-0.45 7.932,-1.349 2.184,-0.902 3.959,-2.091 5.327,-3.568 1.37,-1.481 2.369,-3.167 2.991,-5.059 0.631,-1.894 0.944,-3.858 0.944,-5.889 0,-1.988 -0.313,-3.942 -0.944,-5.857 -0.622,-1.92 -1.621,-3.617 -2.991,-5.091 -1.368,-1.481 -3.143,-2.673 -5.327,-3.572 -2.18,-0.9 -4.825,-1.353 -7.932,-1.353 H -11.49 V -49.475 H -22.418 V 0 Z m -2.995,-23.283 c 1.253,0 2.456,0.092 3.621,0.28 1.156,0.181 2.181,0.538 3.059,1.072 0.883,0.53 1.589,1.285 2.128,2.256 0.53,0.968 0.799,2.24 0.799,3.81 0,1.57 -0.269,2.839 -0.799,3.81 -0.539,0.971 -1.245,1.718 -2.128,2.252 -0.878,0.53 -1.903,0.887 -3.059,1.072 -1.165,0.188 -2.368,0.277 -3.621,0.277 h -8.495 v -14.829 z"
             style="fill:white;fill-opacity:1;fill-rule:nonzero;stroke:none"
             id="path9501"
             inkscape:connector-curvature="0" /></g><g
           id="g9503"
           transform="translate(507.1641,232.6758)"><path
             d="M 0,0 -74.504,-122.447 -61.077,-128.1 15.632,-1.896 Z"
             style="fill:white;fill-opacity:1;fill-rule:nonzero;stroke:none"
             id="path9505"
             inkscape:connector-curvature="0" /></g><g
           id="g9507"
           transform="translate(124.0273,325.7354)"><path
             d="m 0,0 h 24.16 c 4.456,0 8.027,-1.011 10.721,-3.046 2.687,-2.032 4.036,-5.107 4.036,-9.218 0,-2.493 -0.616,-4.633 -1.846,-6.412 -1.229,-1.778 -2.979,-3.151 -5.258,-4.122 v -0.137 c 3.068,-0.646 5.386,-2.091 6.964,-4.332 1.579,-2.24 2.369,-5.046 2.369,-8.418 0,-1.938 -0.35,-3.757 -1.044,-5.443 -0.699,-1.687 -1.789,-3.14 -3.272,-4.364 -1.486,-1.225 -3.389,-2.196 -5.711,-2.91 -2.319,-0.715 -5.081,-1.073 -8.284,-1.073 H 0 Z m 8.702,-20.719 h 14.203 c 2.088,0 3.828,0.591 5.221,1.771 1.394,1.177 2.088,2.875 2.088,5.094 0,2.489 -0.629,4.248 -1.88,5.263 -1.251,1.016 -3.061,1.526 -5.429,1.526 H 8.702 Z m 0,-21.686 H 24.09 c 2.643,0 4.699,0.678 6.158,2.043 1.463,1.361 2.194,3.288 2.194,5.785 0,2.449 -0.731,4.332 -2.194,5.648 -1.459,1.313 -3.515,1.976 -6.158,1.976 H 8.702 Z"
             style="fill:white;fill-opacity:1;fill-rule:nonzero;stroke:none"
             id="path9509"
             inkscape:connector-curvature="0" /></g><g
           id="g9511"
           transform="translate(189.8154,275.2891)"><path
             d="m 0,0 c -2.876,0 -5.441,0.474 -7.689,1.421 -2.254,0.948 -4.157,2.253 -5.711,3.915 -1.558,1.661 -2.738,3.652 -3.553,5.957 -0.809,2.312 -1.216,4.85 -1.216,7.628 0,2.722 0.407,5.238 1.216,7.551 0.815,2.308 1.995,4.296 3.553,5.957 1.554,1.663 3.457,2.971 5.711,3.915 2.248,0.951 4.813,1.425 7.689,1.425 2.879,0 5.444,-0.474 7.692,-1.425 2.255,-0.944 4.158,-2.252 5.711,-3.915 1.553,-1.661 2.738,-3.649 3.551,-5.957 0.81,-2.313 1.218,-4.829 1.218,-7.551 0,-2.778 -0.408,-5.316 -1.218,-7.628 C 16.141,8.988 14.956,6.997 13.403,5.336 11.85,3.674 9.947,2.369 7.692,1.421 5.444,0.474 2.879,0 0,0 m 0,6.239 c 1.765,0 3.298,0.369 4.597,1.108 1.299,0.735 2.369,1.706 3.201,2.907 0.836,1.203 1.448,2.557 1.843,4.058 0.396,1.498 0.592,3.035 0.592,4.609 0,1.517 -0.196,3.043 -0.592,4.568 C 9.246,25.015 8.634,26.368 7.798,27.548 6.966,28.725 5.896,29.68 4.597,30.422 3.298,31.161 1.765,31.53 0,31.53 c -1.762,0 -3.295,-0.369 -4.594,-1.108 -1.299,-0.742 -2.364,-1.697 -3.204,-2.874 -0.833,-1.18 -1.451,-2.533 -1.845,-4.059 -0.395,-1.525 -0.591,-3.051 -0.591,-4.568 0,-1.574 0.196,-3.111 0.591,-4.609 0.394,-1.501 1.012,-2.855 1.845,-4.058 0.84,-1.201 1.905,-2.172 3.204,-2.907 C -3.295,6.608 -1.762,6.239 0,6.239"
             style="fill:white;fill-opacity:1;fill-rule:nonzero;stroke:none"
             id="path9513"
             inkscape:connector-curvature="0" /></g><g
           id="g9515"
           transform="translate(215.9927,312.0859)"><path
             d="m 0,0 h 7.449 v -6.929 h 0.14 c 0.229,0.972 0.683,1.915 1.355,2.842 0.675,0.92 1.485,1.763 2.439,2.53 0.949,0.762 2.005,1.372 3.17,1.834 1.158,0.462 2.342,0.691 3.546,0.691 0.93,0 1.568,-0.024 1.918,-0.069 0.348,-0.044 0.706,-0.091 1.079,-0.136 V -6.86 c -0.557,0.092 -1.126,0.176 -1.706,0.241 -0.582,0.068 -1.15,0.108 -1.704,0.108 -1.349,0 -2.611,-0.269 -3.796,-0.8 -1.184,-0.533 -2.221,-1.32 -3.099,-2.356 -0.884,-1.039 -1.578,-2.32 -2.087,-3.845 -0.511,-1.526 -0.765,-3.281 -0.765,-5.267 v -17.05 H 0 Z"
             style="fill:white;fill-opacity:1;fill-rule:nonzero;stroke:none"
             id="path9517"
             inkscape:connector-curvature="0" /></g><g
           id="g9519"
           transform="translate(274.542,276.2607)"><path
             d="m 0,0 h -7.519 v 4.85 h -0.14 c -1.068,-2.079 -2.622,-3.57 -4.661,-4.468 -2.043,-0.903 -4.205,-1.354 -6.475,-1.354 -2.833,0 -5.308,0.498 -7.415,1.49 -2.114,0.996 -3.864,2.344 -5.259,4.05 -1.393,1.71 -2.437,3.735 -3.132,6.067 -0.694,2.332 -1.045,4.841 -1.045,7.519 0,3.236 0.441,6.03 1.325,8.386 0.878,2.353 2.05,4.296 3.514,5.821 1.463,1.525 3.133,2.642 5.01,3.361 1.883,0.714 3.796,1.075 5.749,1.075 1.113,0 2.248,-0.105 3.406,-0.313 1.164,-0.213 2.279,-0.543 3.342,-1.004 1.071,-0.465 2.055,-1.051 2.961,-1.766 0.905,-0.719 1.66,-1.562 2.26,-2.528 h 0.141 V 49.479 H 0 Z m -27.708,17.531 c 0,-1.525 0.196,-3.027 0.592,-4.504 0.391,-1.481 0.996,-2.798 1.809,-3.95 0.811,-1.157 1.847,-2.08 3.099,-2.774 1.25,-0.696 2.738,-1.04 4.452,-1.04 1.769,0 3.286,0.374 4.565,1.112 1.274,0.735 2.318,1.706 3.131,2.911 0.811,1.199 1.415,2.553 1.809,4.054 0.395,1.498 0.592,3.035 0.592,4.605 0,3.975 -0.892,7.07 -2.68,9.289 -1.789,2.216 -4.21,3.325 -7.276,3.325 -1.855,0 -3.421,-0.382 -4.699,-1.145 -1.275,-0.763 -2.323,-1.754 -3.131,-2.978 -0.811,-1.224 -1.396,-2.61 -1.742,-4.16 -0.348,-1.545 -0.521,-3.13 -0.521,-4.745"
             style="fill:white;fill-opacity:1;fill-rule:nonzero;stroke:none"
             id="path9521"
             inkscape:connector-curvature="0" /></g><g
           id="g9523"
           transform="translate(290.7632,292.1299)"><path
             d="m 0,0 c 0,-1.389 0.197,-2.726 0.592,-4.022 0.394,-1.29 0.986,-2.425 1.777,-3.397 0.789,-0.967 1.782,-1.742 2.99,-2.315 1.207,-0.583 2.644,-0.868 4.318,-0.868 2.319,0 4.189,0.498 5.602,1.49 1.42,0.991 2.475,2.484 3.17,4.467 h 7.519 c -0.42,-1.942 -1.138,-3.672 -2.158,-5.199 -1.024,-1.521 -2.252,-2.802 -3.692,-3.841 -1.438,-1.041 -3.05,-1.827 -4.839,-2.36 -1.789,-0.527 -3.654,-0.796 -5.602,-0.796 -2.832,0 -5.339,0.462 -7.519,1.386 -2.182,0.927 -4.029,2.22 -5.539,3.882 -1.503,1.661 -2.641,3.648 -3.406,5.961 -0.768,2.304 -1.152,4.845 -1.152,7.62 0,2.541 0.408,4.954 1.221,7.242 0.81,2.288 1.972,4.3 3.478,6.029 1.51,1.731 3.33,3.104 5.468,4.123 2.133,1.016 4.547,1.526 7.238,1.526 2.833,0 5.374,-0.59 7.626,-1.771 2.25,-1.172 4.12,-2.737 5.604,-4.677 1.483,-1.938 2.565,-4.167 3.24,-6.688 C 26.606,5.275 26.778,2.678 26.454,0 Z m 18.519,5.195 c -0.095,1.249 -0.361,2.449 -0.801,3.606 -0.44,1.155 -1.044,2.159 -1.809,3.011 -0.768,0.854 -1.698,1.548 -2.787,2.083 -1.091,0.53 -2.308,0.794 -3.656,0.794 -1.393,0 -2.655,-0.241 -3.794,-0.726 C 4.535,13.478 3.559,12.807 2.75,11.952 1.935,11.097 1.287,10.089 0.8,8.941 0.313,7.784 0.044,6.536 0,5.195 Z"
             style="fill:white;fill-opacity:1;fill-rule:nonzero;stroke:none"
             id="path9525"
             inkscape:connector-curvature="0" /></g><g
           id="g9527"
           transform="translate(354.813,284.2295)"><path
             d="m 0,0 c 0,-0.972 0.126,-1.666 0.381,-2.08 0.255,-0.417 0.757,-0.626 1.495,-0.626 h 0.84 c 0.325,0 0.694,0.049 1.109,0.141 V -8.037 C 3.551,-8.134 3.189,-8.233 2.75,-8.35 2.31,-8.47 1.856,-8.566 1.393,-8.663 0.927,-8.751 0.463,-8.823 0,-8.872 c -0.466,-0.044 -0.859,-0.065 -1.185,-0.065 -1.623,0 -2.973,0.318 -4.037,0.964 -1.069,0.651 -1.763,1.783 -2.089,3.396 -1.577,-1.526 -3.514,-2.629 -5.813,-3.323 -2.298,-0.691 -4.512,-1.037 -6.649,-1.037 -1.624,0 -3.178,0.217 -4.664,0.652 -1.487,0.44 -2.793,1.087 -3.934,1.946 -1.138,0.851 -2.043,1.94 -2.712,3.256 -0.674,1.313 -1.011,2.85 -1.011,4.609 0,2.216 0.407,4.018 1.217,5.403 0.808,1.384 1.878,2.473 3.2,3.257 1.325,0.786 2.809,1.352 4.457,1.697 1.649,0.346 3.306,0.615 4.979,0.8 1.438,0.272 2.807,0.473 4.108,0.586 1.299,0.116 2.449,0.312 3.448,0.589 0.994,0.278 1.785,0.703 2.363,1.282 0.58,0.582 0.873,1.445 0.873,2.596 0,1.016 -0.243,1.851 -0.733,2.497 -0.486,0.647 -1.09,1.145 -1.808,1.494 -0.721,0.345 -1.522,0.573 -2.401,0.69 -0.883,0.112 -1.718,0.173 -2.507,0.173 -2.228,0 -4.063,-0.462 -5.502,-1.385 -1.437,-0.928 -2.252,-2.356 -2.437,-4.296 h -7.935 c 0.141,2.309 0.695,4.223 1.67,5.749 0.974,1.526 2.216,2.75 3.724,3.677 1.509,0.92 3.215,1.565 5.118,1.939 1.903,0.366 3.852,0.55 5.845,0.55 1.765,0 3.507,-0.184 5.221,-0.55 1.718,-0.374 3.265,-0.971 4.633,-1.802 1.369,-0.835 2.471,-1.908 3.306,-3.22 C -0.416,21.932 0,20.322 0,18.431 Z m -7.939,9.977 c -1.205,-0.788 -2.689,-1.257 -4.452,-1.418 -1.768,-0.164 -3.53,-0.41 -5.295,-0.727 -0.835,-0.14 -1.645,-0.337 -2.433,-0.59 -0.791,-0.253 -1.489,-0.601 -2.09,-1.04 -0.604,-0.445 -1.079,-1.019 -1.425,-1.733 -0.349,-0.715 -0.524,-1.582 -0.524,-2.598 0,-0.879 0.251,-1.618 0.765,-2.216 0.51,-0.606 1.124,-1.081 1.843,-1.425 0.722,-0.345 1.509,-0.586 2.368,-0.727 0.859,-0.141 1.637,-0.209 2.335,-0.209 0.879,0 1.832,0.117 2.852,0.35 1.02,0.228 1.986,0.626 2.89,1.176 0.904,0.554 1.661,1.256 2.261,2.111 0.604,0.855 0.905,1.907 0.905,3.16 z"
             style="fill:white;fill-opacity:1;fill-rule:nonzero;stroke:none"
             id="path9529"
             inkscape:connector-curvature="0" /></g><g
           id="g9531"
           transform="translate(396.3745,276.2607)"><path
             d="m 0,0 h -7.797 v 4.99 h -0.141 c -0.974,-1.802 -2.425,-3.248 -4.35,-4.332 -1.926,-1.088 -3.888,-1.63 -5.883,-1.63 -4.735,0 -8.156,1.169 -10.267,3.496 -2.114,2.333 -3.169,5.858 -3.169,10.572 v 22.729 h 7.936 V 13.858 c 0,-3.143 0.604,-5.359 1.809,-6.652 1.208,-1.297 2.902,-1.943 5.086,-1.943 1.668,0 3.063,0.258 4.177,0.762 1.114,0.511 2.018,1.193 2.712,2.048 0.694,0.856 1.197,1.883 1.497,3.083 0.304,1.2 0.452,2.493 0.452,3.878 V 35.825 H 0 Z"
             style="fill:white;fill-opacity:1;fill-rule:nonzero;stroke:none"
             id="path9533"
             inkscape:connector-curvature="0" /></g><g
           id="g9535"
           transform="translate(415.7974,295.1084)"><path
             d="m 0,0 -12.465,16.978 h 9.612 L 4.665,5.963 12.53,16.978 h 9.193 L 9.468,0.414 23.252,-18.848 H 13.714 L 4.596,-5.615 -4.247,-18.848 h -9.326 z"
             style="fill:white;fill-opacity:1;fill-rule:nonzero;stroke:none"
             id="path9537"
             inkscape:connector-curvature="0" /></g><path
           d="m 477.199,276.257 h -10.931 v 49.479 h 10.931 z"
           style="fill:white;fill-opacity:1;fill-rule:nonzero;stroke:none"
           id="path9539"
           inkscape:connector-curvature="0" /><g
           id="g9541"
           transform="translate(464.1211,354.7729)"><path
             d="m 0,0 -126.687,64.373 3.153,5.058 L 4.018,4.621 Z"
             style="fill:white;fill-opacity:1;fill-rule:nonzero;stroke:none"
             id="path9543"
             inkscape:connector-curvature="0" /></g><g
           id="g9545"
           transform="translate(538.3887,232.0605)"><path
             d="m 0,0 -25.901,-141.535 -5.926,0.389 25.637,140.254 z"
             style="fill:white;fill-opacity:1;fill-rule:nonzero;stroke:none"
             id="path9547"
             inkscape:connector-curvature="0" /></g><g
           id="g9549"
           transform="translate(558.5986,375.5957)"><path
             d="M 0,0 25.636,140.288 31.4,138.55 5.512,-3.031 Z"
             style="fill:white;fill-opacity:1;fill-rule:nonzero;stroke:none"
             id="path9551"
             inkscape:connector-curvature="0" /></g><g
           id="g9553"
           transform="translate(503.832,380.915)"><path
             d="m 0,0 -47.026,132.254 -4.219,-1.348 c 0.004,0 47.014,-132.195 47.014,-132.195 z"
             style="fill:white;fill-opacity:1;fill-rule:nonzero;stroke:none"
             id="path9555"
             inkscape:connector-curvature="0" /></g><g
           id="g9557"
           transform="translate(554.7441,236.7695)"><path
             d="m 0,0 44.056,-136.919 -4.215,-1.35 -44.053,136.875 z"
             style="fill:white;fill-opacity:1;fill-rule:nonzero;stroke:none"
             id="path9559"
             inkscape:connector-curvature="0" /></g><g
           id="g9561"
           transform="translate(483.2295,242.5752)"><path
             d="m 0,0 -47.854,-133.576 -5.439,2.509 48.202,134.559 z"
             style="fill:white;fill-opacity:1;fill-rule:nonzero;stroke:none"
             id="path9563"
             inkscape:connector-curvature="0" /></g><g
           id="g9565"
           transform="translate(527.3965,383.5483)"><path
             d="M 0,0 48.223,134.587 54.012,133.118 6.162,-0.461 Z"
             style="fill:white;fill-opacity:1;fill-rule:nonzero;stroke:none"
             id="path9567"
             inkscape:connector-curvature="0" /></g><g
           id="g9569"
           transform="translate(501.0625,380.1006)"><path
             d="m 0,0 -109.308,99.436 -4.661,-3.658 107.69,-98.062 z"
             style="fill:white;fill-opacity:1;fill-rule:nonzero;stroke:none"
             id="path9571"
             inkscape:connector-curvature="0" /></g><g
           id="g9573"
           transform="translate(597.5186,284.2578)"><path
             d="m 0,0 107.722,-98.095 3.381,5.147 L 1.738,6.523 Z"
             style="fill:white;fill-opacity:1;fill-rule:nonzero;stroke:none"
             id="path9575"
             inkscape:connector-curvature="0" /></g><g
           id="g9577"
           transform="translate(573.4199,248.5)"><path
             d="M 0,0 165.101,18.567 163.865,12.441 -10.165,-7.142 Z"
             style="fill:white;fill-opacity:1;fill-rule:nonzero;stroke:none"
             id="path9579"
             inkscape:connector-curvature="0" /></g><g
           id="g9581"
           transform="translate(574.4512,365.0664)"><path
             d="M 0,0 99.961,99.146 95.746,103.354 -4.701,3.729 Z"
             style="fill:white;fill-opacity:1;fill-rule:nonzero;stroke:none"
             id="path9583"
             inkscape:connector-curvature="0" /></g><g
           id="g9585"
           transform="translate(593.2031,340.8984)"><path
             d="M 0,0 143.295,16.131 144.604,10.189 2.545,-5.781 Z"
             style="fill:white;fill-opacity:1;fill-rule:nonzero;stroke:none"
             id="path9587"
             inkscape:connector-curvature="0" /></g><g
           id="g9589"
           transform="translate(600.498,294.3584)"><path
             d="M 0,0 135.43,-39.21 133.76,-44.914 -1.418,-5.777 Z"
             style="fill:white;fill-opacity:1;fill-rule:nonzero;stroke:none"
             id="path9591"
             inkscape:connector-curvature="0" /></g><g
           id="g9593"
           transform="translate(461.4785,351.2441)"><path
             d="m 0,0 c 0,0 -142.02,27.764 -142.027,27.764 l -1.142,0.37 2.306,5.484 L 4.063,5.247 Z"
             style="fill:white;fill-opacity:1;fill-rule:nonzero;stroke:none"
             id="path9595"
             inkscape:connector-curvature="0" /></g><g
           id="g9597"
           transform="translate(597.3496,330.6934)"><path
             d="M 0,0 C 71.278,-13.955 144.856,-28.362 144.856,-28.362 L 144.64,-34.264 1.759,-6.342 Z"
             style="fill:white;fill-opacity:1;fill-rule:nonzero;stroke:none"
             id="path9599"
             inkscape:connector-curvature="0" /></g><g
           id="g9601"
           transform="translate(473.3936,364.4839)"><path
             d="m 0,0 -94.767,104.217 11.15,9.314 L 11.795,8.542 Z"
             style="fill:white;fill-opacity:1;fill-rule:nonzero;stroke:none"
             id="path9603"
             inkscape:connector-curvature="0" /></g><g
           id="g9605"
           transform="translate(681.5586,156.958)"><path
             d="m 0,0 -10.329,-10.013 -93.554,105.626 9.048,10.377 z"
             style="fill:white;fill-opacity:1;fill-rule:nonzero;stroke:none"
             id="path9607"
             inkscape:connector-curvature="0" /></g><g
           id="g9609"
           transform="translate(591.5977,343.9653)"><path
             d="M 0,0 76.685,126.153 65.581,135.27 -8.913,12.839 0.008,0.029"
             style="fill:white;fill-opacity:1;fill-rule:nonzero;stroke:none"
             id="path9611"
             inkscape:connector-curvature="0" /></g><g
           id="g9613"
           transform="translate(532.4873,383.208)"><path
             d="m 0,0 7.539,140.436 -14.323,0.755 c 0,0 -3.73,-69.66 -7.551,-140.983 z"
             style="fill:white;fill-opacity:1;fill-rule:nonzero;stroke:none"
             id="path9615"
             inkscape:connector-curvature="0" /></g><g
           id="g9617"
           transform="translate(502.5029,91.0908)"><path
             d="M 0,0 14.296,-0.756 21.819,139.67 7.543,140.986 Z"
             style="fill:white;fill-opacity:1;fill-rule:nonzero;stroke:none"
             id="path9619"
             inkscape:connector-curvature="0" /></g><g
           id="g9621"
           transform="translate(566.1611,371.2764)"><path
             d="M 0,0 C 46.561,54.236 92.025,107.18 92.025,107.18 L 80.155,115.774 -13.224,6.853 Z"
             style="fill:white;fill-opacity:1;fill-rule:nonzero;stroke:none"
             id="path9623"
             inkscape:connector-curvature="0" /></g><g
           id="g9625"
           transform="translate(526.9883,383.5933)"><path
             d="M 0,0 -66.577,131.287 -79.946,126.75 -15.304,-0.964 Z"
             style="fill:white;fill-opacity:1;fill-rule:nonzero;stroke:none"
             id="path9627"
             inkscape:connector-curvature="0" /></g><g
           id="g9629"
           transform="translate(577.6553,252.2861)"><path
             d="m 0,0 64.484,-127.397 11.909,8.222 L 9.972,11.742 Z"
             style="fill:white;fill-opacity:1;fill-rule:nonzero;stroke:none"
             id="path9631"
             inkscape:connector-curvature="0" /></g><g
           id="g9633"
           transform="translate(597.21,331.1196)"><path
             d="M 0,0 129.227,57.443 123.394,70.462 -5.732,13.063 Z"
             style="fill:white;fill-opacity:1;fill-rule:nonzero;stroke:none"
             id="path9635"
             inkscape:connector-curvature="0" /></g><g
           id="g9637"
           transform="translate(599.6826,292.8164)"><path
             d="m 0,0 c 69.375,-17.688 136.908,-34.906 136.908,-34.906 l 2.757,13.875 L 1.36,14.305 Z"
             style="fill:white;fill-opacity:1;fill-rule:nonzero;stroke:none"
             id="path9639"
             inkscape:connector-curvature="0" /></g><g
           id="g9641"
           transform="translate(455.4336,341.1636)"><path
             d="m 0,0 -113.415,85.22 8.3,11.695 L 7.603,12.208 Z"
             style="fill:white;fill-opacity:1;fill-rule:nonzero;stroke:none"
             id="path9643"
             inkscape:connector-curvature="0" /></g><g
           id="g9645"
           transform="translate(575.9121,250.6523)"><path
             d="m 0,0 113.416,-85.205 9.003,11.089 L 9.704,10.59 Z"
             style="fill:white;fill-opacity:1;fill-rule:nonzero;stroke:none"
             id="path9647"
             inkscape:connector-curvature="0" /></g><g
           id="g9649"
           transform="translate(482.2617,371.2163)"><path
             d="M 0,0 -123.82,76.898 -132.843,65.669 -11.83,-9.474 Z"
             style="fill:white;fill-opacity:1;fill-rule:nonzero;stroke:none"
             id="path9651"
             inkscape:connector-curvature="0" /></g><g
           id="g9653"
           transform="translate(600.4697,297.8105)"><path
             d="M 0,0 123.86,-76.922 117.694,-89.897 -3.34,-14.737 Z"
             style="fill:white;fill-opacity:1;fill-rule:nonzero;stroke:none"
             id="path9655"
             inkscape:connector-curvature="0" /></g><g
           id="g9657"
           transform="translate(124.0259,252.1533)"><path
             d="m 0,0 v -39.583 h 30.046 v 7.318 H 8.703 v 9.7 h 19.178 v 6.768 H 8.703 v 8.475 H 29.599 V 0 Z"
             style="fill:white;fill-opacity:1;fill-rule:nonzero;stroke:none"
             id="path9659"
             inkscape:connector-curvature="0" /></g><g
           id="g9661"
           transform="translate(172.0332,252.1533)"><path
             d="m 0,0 16.518,-26.556 h 0.115 V 0 h 8.147 v -39.583 h -8.704 l -16.463,26.5 h -0.114 v -26.5 h -8.148 l 0,39.583 z"
             style="fill:white;fill-opacity:1;fill-rule:nonzero;stroke:none"
             id="path9663"
             inkscape:connector-curvature="0" /></g><g
           id="g9665"
           transform="translate(214.5513,222.3301)"><path
             d="m 0,0 c 0.481,-0.928 1.118,-1.675 1.917,-2.249 0.793,-0.573 1.726,-0.995 2.794,-1.276 1.078,-0.273 2.188,-0.413 3.331,-0.413 0.776,0 1.611,0.064 2.494,0.196 0.889,0.129 1.718,0.378 2.491,0.746 0.777,0.366 1.424,0.876 1.941,1.522 0.518,0.647 0.781,1.474 0.781,2.469 0,1.071 -0.345,1.939 -1.028,2.609 C 14.035,4.267 13.144,4.821 12.033,5.263 10.924,5.708 9.665,6.094 8.264,6.427 6.857,6.76 5.436,7.126 3.993,7.539 2.513,7.908 1.07,8.362 -0.333,8.896 c -1.405,0.534 -2.66,1.228 -3.77,2.08 -1.109,0.85 -2.001,1.911 -2.684,3.183 -0.682,1.28 -1.027,2.819 -1.027,4.632 0,2.027 0.431,3.798 1.303,5.292 0.867,1.497 2.007,2.741 3.404,3.741 1.409,1 3.001,1.739 4.774,2.22 1.77,0.482 3.546,0.719 5.319,0.719 2.071,0 4.06,-0.229 5.959,-0.691 1.905,-0.461 3.593,-1.212 5.078,-2.248 1.476,-1.036 2.647,-2.356 3.519,-3.963 0.867,-1.605 1.299,-3.556 1.299,-5.848 h -8.428 c -0.073,1.184 -0.324,2.164 -0.747,2.938 -0.42,0.779 -0.992,1.385 -1.687,1.831 -0.703,0.442 -1.509,0.755 -2.417,0.944 -0.904,0.18 -1.895,0.276 -2.964,0.276 -0.702,0 -1.406,-0.076 -2.104,-0.221 C 3.79,23.633 3.153,23.372 2.578,23.003 2.003,22.638 1.538,22.172 1.164,21.617 0.799,21.067 0.608,20.361 0.608,19.514 c 0,-0.783 0.149,-1.409 0.45,-1.887 0.291,-0.481 0.871,-0.923 1.746,-1.332 0.863,-0.41 2.068,-0.812 3.597,-1.217 1.538,-0.409 3.539,-0.927 6.017,-1.554 0.738,-0.144 1.769,-0.417 3.081,-0.803 1.31,-0.389 2.611,-1.007 3.905,-1.858 1.291,-0.851 2.413,-1.983 3.354,-3.412 0.942,-1.418 1.413,-3.24 1.413,-5.46 0,-1.811 -0.348,-3.493 -1.056,-5.043 -0.702,-1.549 -1.741,-2.89 -3.131,-4.018 -1.383,-1.127 -3.101,-2.007 -5.148,-2.638 -2.06,-0.626 -4.434,-0.935 -7.128,-0.935 -2.178,0 -4.295,0.265 -6.347,0.799 -2.052,0.534 -3.864,1.377 -5.434,2.525 -1.571,1.144 -2.816,2.602 -3.741,4.381 -0.921,1.774 -1.369,3.877 -1.337,6.313 h 8.437 C -0.714,2.051 -0.479,0.919 0,0"
             style="fill:white;fill-opacity:1;fill-rule:nonzero;stroke:none"
             id="path9667"
             inkscape:connector-curvature="0" /></g><g
           id="g9669"
           transform="translate(276.9189,252.1533)"><path
             d="m 0,0 v -7.318 h -20.896 v -8.479 h 19.178 v -6.764 h -19.178 v -9.704 H 0.448 v -7.318 H -29.598 V 0 Z"
             style="fill:white;fill-opacity:1;fill-rule:nonzero;stroke:none"
             id="path9671"
             inkscape:connector-curvature="0" /></g><path
           d="m 295.38,212.57 h -8.704 v 39.583 h 8.704 z"
           style="fill:white;fill-opacity:1;fill-rule:nonzero;stroke:none"
           id="path9673"
           inkscape:connector-curvature="0" /><g
           id="g9675"
           transform="translate(327.8096,252.1533)"><path
             d="m 0,0 c 1.771,0 3.372,-0.289 4.797,-0.858 1.423,-0.575 2.64,-1.358 3.655,-2.358 1.016,-1 1.793,-2.155 2.327,-3.464 0.535,-1.313 0.807,-2.726 0.807,-4.24 0,-2.332 -0.486,-4.344 -1.468,-6.042 -0.984,-1.701 -2.579,-2.998 -4.798,-3.882 v -0.116 c 1.076,-0.292 1.959,-0.742 2.668,-1.356 0.695,-0.611 1.271,-1.33 1.719,-2.16 0.439,-0.832 0.765,-1.743 0.965,-2.743 0.201,-0.999 0.338,-1.998 0.411,-2.998 0.041,-0.627 0.079,-1.365 0.115,-2.216 0.038,-0.851 0.102,-1.718 0.193,-2.606 0.096,-0.887 0.243,-1.726 0.445,-2.521 0.205,-0.794 0.51,-1.469 0.912,-2.023 H 4.046 c -0.478,1.257 -0.777,2.754 -0.885,4.492 -0.111,1.735 -0.279,3.401 -0.5,4.99 -0.297,2.068 -0.921,3.581 -1.883,4.544 -0.96,0.96 -2.529,1.442 -4.717,1.442 h -8.702 v -15.468 h -8.703 V 0 Z m -3.108,-17.908 c 1.998,0 3.495,0.445 4.494,1.333 0.994,0.887 1.496,2.328 1.496,4.323 0,1.919 -0.502,3.319 -1.496,4.187 -0.999,0.868 -2.496,1.3 -4.494,1.3 h -9.533 v -11.143 z"
             style="fill:white;fill-opacity:1;fill-rule:nonzero;stroke:none"
             id="path9677"
             inkscape:connector-curvature="0" /></g><g
           id="g9679"
           transform="translate(368.5566,252.1533)"><path
             d="m 0,0 c 1.886,0 3.604,-0.164 5.155,-0.497 1.549,-0.338 2.886,-0.88 3.995,-1.639 1.111,-0.759 1.97,-1.761 2.578,-3.018 0.609,-1.261 0.911,-2.814 0.911,-4.661 0,-1.996 -0.451,-3.658 -1.359,-4.987 -0.905,-1.332 -2.246,-2.425 -4.02,-3.271 2.445,-0.702 4.261,-1.931 5.462,-3.686 1.204,-1.758 1.8,-3.874 1.8,-6.35 0,-1.992 -0.385,-3.722 -1.162,-5.183 -0.773,-1.457 -1.82,-2.649 -3.129,-3.573 -1.311,-0.923 -2.816,-1.61 -4.493,-2.052 -1.685,-0.441 -3.412,-0.666 -5.184,-0.666 H -18.624 V 0 Z m -1.11,-16.021 c 1.558,0 2.828,0.364 3.832,1.111 0.993,0.735 1.495,1.935 1.495,3.601 0,0.923 -0.173,1.683 -0.502,2.273 -0.333,0.59 -0.781,1.052 -1.335,1.385 -0.555,0.333 -1.188,0.561 -1.909,0.694 -0.722,0.128 -1.467,0.192 -2.243,0.192 H -9.92 v -9.256 z m 0.502,-16.798 c 0.851,0 1.664,0.081 2.433,0.254 0.78,0.164 1.463,0.437 2.058,0.822 0.589,0.393 1.063,0.92 1.409,1.586 0.352,0.667 0.529,1.513 0.529,2.55 0,2.031 -0.572,3.48 -1.718,4.351 -1.148,0.867 -2.66,1.305 -4.543,1.305 h -9.48 v -10.868 z"
             style="fill:white;fill-opacity:1;fill-rule:nonzero;stroke:none"
             id="path9681"
             inkscape:connector-curvature="0" /></g><g
           id="g9683"
           transform="translate(154.4053,200.1777)"><path
             d="M 0,0 -8.757,-27.219 H -8.872 L -18.129,0 h -12.25 v -39.58 h 8.147 v 27.768 h 0.11 l 9.704,-27.768 h 6.704 l 9.705,28.05 h 0.107 v -28.05 h 8.157 V 0 Z"
             style="fill:white;fill-opacity:1;fill-rule:nonzero;stroke:none"
             id="path9685"
             inkscape:connector-curvature="0" /></g><g
           id="g9687"
           transform="translate(194.0415,200.1816)"><path
             d="m 0,0 14.807,-39.587 h -9.04 l -2.993,8.819 h -14.8 l -3.107,-8.819 h -8.755 L -8.921,0 Z m 0.501,-24.284 -4.987,14.528 h -0.111 l -5.154,-14.528 z"
             style="fill:white;fill-opacity:1;fill-rule:nonzero;stroke:none"
             id="path9689"
             inkscape:connector-curvature="0" /></g><g
           id="g9691"
           transform="translate(204.0757,192.8594)"><path
             d="M 0,0 V 7.318 H 32.435 V 0 H 20.572 v -32.262 h -8.707 l 0,32.262 z"
             style="fill:white;fill-opacity:1;fill-rule:nonzero;stroke:none"
             id="path9693"
             inkscape:connector-curvature="0" /></g><g
           id="g9695"
           transform="translate(253.3096,200.1816)"><path
             d="M 0,0 9.257,-27.219 H 9.364 L 18.12,0 H 30.378 V -39.587 H 22.23 v 28.053 H 22.116 L 12.419,-39.587 H 5.705 l -9.698,27.775 h -0.114 v -27.775 h -8.15 V 0 Z"
             style="fill:white;fill-opacity:1;fill-rule:nonzero;stroke:none"
             id="path9697"
             inkscape:connector-curvature="0" /></g><g
           id="g9699"
           transform="translate(320.9399,200.1816)"><path
             d="m 0,0 v -7.318 h -20.899 v -8.483 h 19.181 v -6.761 h -19.181 v -9.704 H 0.45 v -7.321 H -29.601 V 0 Z"
             style="fill:white;fill-opacity:1;fill-rule:nonzero;stroke:none"
             id="path9701"
             inkscape:connector-curvature="0" /></g><g
           id="g9703"
           transform="translate(352.6528,189.6191)"><path
             d="m 0,0 c -0.514,0.831 -1.164,1.559 -1.941,2.192 -0.772,0.626 -1.652,1.112 -2.636,1.465 -0.981,0.349 -2.001,0.527 -3.069,0.527 -1.965,0 -3.63,-0.378 -4.995,-1.133 -1.37,-0.762 -2.48,-1.779 -3.321,-3.051 -0.855,-1.276 -1.474,-2.726 -1.863,-4.355 -0.386,-1.623 -0.583,-3.304 -0.583,-5.043 0,-1.666 0.197,-3.28 0.583,-4.849 0.389,-1.57 1.008,-2.986 1.863,-4.24 0.841,-1.257 1.951,-2.265 3.321,-3.022 1.365,-0.76 3.03,-1.137 4.995,-1.137 2.66,0 4.736,0.812 6.23,2.437 1.499,1.626 2.419,3.771 2.747,6.432 h 8.428 c -0.222,-2.473 -0.796,-4.71 -1.718,-6.709 -0.929,-1.995 -2.146,-3.693 -3.664,-5.094 -1.517,-1.409 -3.287,-2.481 -5.318,-3.215 -2.036,-0.748 -4.272,-1.112 -6.705,-1.112 -3.035,0 -5.76,0.525 -8.182,1.577 -2.424,1.057 -4.46,2.505 -6.124,4.354 -1.666,1.847 -2.94,4.016 -3.823,6.513 -0.888,2.492 -1.337,5.183 -1.337,8.065 0,2.959 0.449,5.701 1.337,8.234 0.883,2.533 2.157,4.741 3.823,6.624 1.664,1.887 3.7,3.364 6.124,4.44 2.422,1.068 5.147,1.606 8.182,1.606 2.179,0 4.233,-0.318 6.179,-0.943 C 0.472,9.932 2.208,9.021 3.742,7.813 5.279,6.612 6.544,5.131 7.54,3.352 8.542,1.578 9.164,-0.454 9.426,-2.746 H 1.003 C 0.852,-1.746 0.514,-0.831 0,0"
             style="fill:white;fill-opacity:1;fill-rule:nonzero;stroke:none"
             id="path9705"
             inkscape:connector-curvature="0" /></g><g
           id="g9707"
           transform="translate(388.0732,200.1816)"><path
             d="m 0,0 14.807,-39.587 h -9.04 l -2.993,8.819 h -14.797 l -3.11,-8.819 h -8.755 L -8.921,0 Z m 0.501,-24.284 -4.985,14.528 h -0.113 l -5.154,-14.528 z"
             style="fill:white;fill-opacity:1;fill-rule:nonzero;stroke:none"
             id="path9709"
             inkscape:connector-curvature="0" /></g></g></g></g></svg>