<?xml version="1.0" encoding="UTF-8" standalone="no"?>
<svg
   xmlns:dc="http://purl.org/dc/elements/1.1/"
   xmlns:cc="http://creativecommons.org/ns#"
   xmlns:rdf="http://www.w3.org/1999/02/22-rdf-syntax-ns#"
   xmlns:svg="http://www.w3.org/2000/svg"
   xmlns="http://www.w3.org/2000/svg"
   viewBox="0 0 824.23999 578.74664"
   height="578.74664"
   width="824.23999"
   xml:space="preserve"
   id="svg2"
   version="1.1"><metadata
     id="metadata8"><rdf:RDF><cc:Work
         rdf:about=""><dc:format>image/svg+xml</dc:format><dc:type
           rdf:resource="http://purl.org/dc/dcmitype/StillImage" /></cc:Work></rdf:RDF></metadata><defs
     id="defs6" /><g
     transform="matrix(1.3333333,0,0,-1.3333333,0,578.74667)"
     id="g10"><g
       transform="scale(0.1)"
       id="g12"><path
         id="path14"
         style="fill:#ffffff;fill-opacity:1;fill-rule:nonzero;stroke:none"
         d="M 3831.38,1423.41 3086.34,198.941 3220.61,142.41 3987.7,1404.45 3831.38,1423.41" /><path
         id="path16"
         style="fill:#ffffff;fill-opacity:1;fill-rule:nonzero;stroke:none"
         d="m 3400.95,2644.38 -1266.87,643.73 31.53,50.58 1275.52,-648.1 -40.18,-46.21" /><path
         id="path18"
         style="fill:#ffffff;fill-opacity:1;fill-rule:nonzero;stroke:none"
         d="M 4143.63,1417.26 3884.61,1.90234 3825.36,5.78906 4081.72,1408.34 l 61.91,8.92" /><path
         id="path20"
         style="fill:#ffffff;fill-opacity:1;fill-rule:nonzero;stroke:none"
         d="m 4345.73,2852.61 256.35,1402.88 57.65,-17.38 -258.89,-1415.81 -55.11,30.31" /><path
         id="path22"
         style="fill:#ffffff;fill-opacity:1;fill-rule:nonzero;stroke:none"
         d="m 3798.06,2905.8 -470.26,1322.54 -42.19,-13.48 c 0.04,0 470.14,-1321.94 470.14,-1321.94 l 42.31,12.88" /><path
         id="path24"
         style="fill:#ffffff;fill-opacity:1;fill-rule:nonzero;stroke:none"
         d="m 4307.18,1464.35 440.56,-1369.1898 -42.15,-13.5 -440.53,1368.7498 42.12,13.94" /><path
         id="path26"
         style="fill:#ffffff;fill-opacity:1;fill-rule:nonzero;stroke:none"
         d="M 3592.04,1522.4 3113.5,186.641 l -54.39,25.089 482.02,1345.59 50.91,-34.92" /><path
         id="path28"
         style="fill:#ffffff;fill-opacity:1;fill-rule:nonzero;stroke:none"
         d="m 4033.71,2932.13 482.22,1345.88 57.89,-14.69 -478.49,-1335.8 -61.62,4.61" /><path
         id="path30"
         style="fill:#ffffff;fill-opacity:1;fill-rule:nonzero;stroke:none"
         d="m 3770.37,2897.66 -1093.08,994.35 -46.61,-36.58 1076.89,-980.62 62.8,22.85" /><path
         id="path32"
         style="fill:#ffffff;fill-opacity:1;fill-rule:nonzero;stroke:none"
         d="m 4734.93,1939.23 1077.21,-980.949 33.81,51.469 -1093.64,994.71 -17.38,-65.23" /><path
         id="path34"
         style="fill:#ffffff;fill-opacity:1;fill-rule:nonzero;stroke:none"
         d="m 4493.94,1581.65 1651.01,185.67 -12.36,-61.26 -1740.3,-195.83 101.65,71.42" /><path
         id="path36"
         style="fill:#ffffff;fill-opacity:1;fill-rule:nonzero;stroke:none"
         d="m 4504.25,2747.31 999.61,991.47 -42.15,42.07 -1004.47,-996.24 47.01,-37.3" /><path
         id="path38"
         style="fill:#ffffff;fill-opacity:1;fill-rule:nonzero;stroke:none"
         d="m 4691.77,2505.64 1432.95,161.3 13.09,-59.42 -1420.59,-159.69 -25.45,57.81" /><path
         id="path40"
         style="fill:#ffffff;fill-opacity:1;fill-rule:nonzero;stroke:none"
         d="m 4764.72,2040.23 1354.3,-392.09 -16.7,-57.05 -1351.78,391.37 14.18,57.77" /><path
         id="path42"
         style="fill:#ffffff;fill-opacity:1;fill-rule:nonzero;stroke:none"
         d="m 3374.53,2609.09 c 0,0 -1420.2,277.64 -1420.28,277.64 l -11.42,3.7 23.06,54.84 1449.26,-283.71 -40.62,-52.47" /><path
         id="path44"
         style="fill:#ffffff;fill-opacity:1;fill-rule:nonzero;stroke:none"
         d="M 4733.24,2403.58 C 5446.02,2264.04 6181.8,2119.96 6181.8,2119.96 l -2.17,-59.01 -1428.8,279.21 -17.59,63.42" /><path
         id="path46"
         style="fill:#ffffff;fill-opacity:1;fill-rule:nonzero;stroke:none"
         d="m 3493.68,2741.49 -947.67,1042.17 111.5,93.14 954.12,-1049.89 -117.95,-85.42" /><path
         id="path48"
         style="fill:#ffffff;fill-opacity:1;fill-rule:nonzero;stroke:none"
         d="M 5575.33,666.23 5472.04,566.102 4536.5,1622.36 l 90.48,103.77 948.35,-1059.9" /><path
         id="path50"
         style="fill:#ffffff;fill-opacity:1;fill-rule:nonzero;stroke:none"
         d="m 4675.72,2536.3 766.84,1261.53 -111.03,91.17 -744.94,-1224.31 89.21,-128.1" /><path
         id="path52"
         style="fill:#ffffff;fill-opacity:1;fill-rule:nonzero;stroke:none"
         d="m 4084.61,2928.73 75.39,1404.36 -143.23,7.55 c 0,0 -37.29,-696.6 -75.51,-1409.83 l 143.35,-2.08" /><path
         id="path54"
         style="fill:#ffffff;fill-opacity:1;fill-rule:nonzero;stroke:none"
         d="M 3784.77,7.55859 3927.73,0 4002.96,1404.26 3860.2,1417.42 3784.77,7.55859" /><path
         id="path56"
         style="fill:#ffffff;fill-opacity:1;fill-rule:nonzero;stroke:none"
         d="m 4421.35,2809.41 c 465.61,542.37 920.26,1071.8 920.26,1071.8 l -118.7,85.95 -933.79,-1089.22 132.23,-68.53" /><path
         id="path58"
         style="fill:#ffffff;fill-opacity:1;fill-rule:nonzero;stroke:none"
         d="m 4029.62,2932.58 -665.77,1312.87 -133.69,-45.37 646.43,-1277.14 153.03,9.64" /><path
         id="path60"
         style="fill:#ffffff;fill-opacity:1;fill-rule:nonzero;stroke:none"
         d="m 4536.29,1619.51 644.85,-1273.971 119.08,82.223 -664.21,1309.168 -99.72,-117.42" /><path
         id="path62"
         style="fill:#ffffff;fill-opacity:1;fill-rule:nonzero;stroke:none"
         d="m 4731.84,2407.85 1292.27,574.43 -58.33,130.19 -1291.26,-573.99 57.32,-130.63" /><path
         id="path64"
         style="fill:#ffffff;fill-opacity:1;fill-rule:nonzero;stroke:none"
         d="m 4756.57,2024.81 c 693.75,-176.87 1369.08,-349.06 1369.08,-349.06 l 27.57,138.75 -1383.05,353.36 -13.6,-143.05" /><path
         id="path66"
         style="fill:#ffffff;fill-opacity:1;fill-rule:nonzero;stroke:none"
         d="m 3314.08,2508.29 -1134.15,852.2 82.99,116.94 1127.18,-847.06 -76.02,-122.08" /><path
         id="path68"
         style="fill:#ffffff;fill-opacity:1;fill-rule:nonzero;stroke:none"
         d="m 4518.86,1603.17 1134.16,-852.049 90.03,110.891 -1127.15,847.058 -97.04,-105.9" /><path
         id="path70"
         style="fill:#ffffff;fill-opacity:1;fill-rule:nonzero;stroke:none"
         d="m 3582.36,2808.81 -1238.2,768.99 -90.23,-112.29 1210.13,-751.44 118.3,94.74" /><path
         id="path72"
         style="fill:#ffffff;fill-opacity:1;fill-rule:nonzero;stroke:none"
         d="m 4764.44,2074.76 1238.6,-769.22 -61.66,-129.76 -1210.34,751.6 33.4,147.38" /><path
         id="path74"
         style="fill:#ffffff;fill-opacity:1;fill-rule:nonzero;stroke:none"
         d="m 0,1618.18 v -395.83 h 300.465 v 73.19 H 87.0313 v 96.99 H 278.809 v 67.69 H 87.0313 v 84.74 H 295.992 v 73.22 H 0" /><path
         id="path76"
         style="fill:#ffffff;fill-opacity:1;fill-rule:nonzero;stroke:none"
         d="m 480.074,1618.18 165.18,-265.55 h 1.148 v 265.55 h 81.469 v -395.83 h -87.035 l -164.629,265 h -1.148 v -265 h -81.481 v 395.83 h 86.496" /><path
         id="path78"
         style="fill:#ffffff;fill-opacity:1;fill-rule:nonzero;stroke:none"
         d="m 905.254,1319.95 c 4.812,-9.28 11.176,-16.75 19.172,-22.49 7.929,-5.73 17.258,-9.95 27.941,-12.76 10.778,-2.73 21.879,-4.13 33.301,-4.13 7.766,0 16.122,0.64 24.952,1.96 8.89,1.29 17.18,3.78 24.91,7.46 7.76,3.66 14.23,8.76 19.41,15.23 5.18,6.46 7.8,14.73 7.8,24.68 0,10.72 -3.45,19.39 -10.27,26.1 -6.87,6.62 -15.78,12.16 -26.88,16.58 -11.1,4.45 -23.69,8.31 -37.695,11.64 -14.071,3.33 -28.286,6.99 -42.715,11.12 -14.793,3.69 -29.227,8.23 -43.254,13.58 -14.055,5.33 -26.598,12.27 -37.703,20.79 -11.094,8.5 -20.008,19.11 -26.84,31.83 -6.817,12.81 -10.274,28.19 -10.274,46.32 0,20.28 4.317,37.98 13.032,52.92 8.672,14.97 20.07,27.41 34.039,37.41 14.097,10 30.008,17.39 47.738,22.2 17.707,4.83 35.465,7.19 53.195,7.19 20.707,0 40.597,-2.29 59.597,-6.91 19.04,-4.61 35.92,-12.11 50.77,-22.48 14.76,-10.36 26.48,-23.56 35.19,-39.63 8.68,-16.05 12.99,-35.56 12.99,-58.48 h -84.28 c -0.73,11.84 -3.24,21.64 -7.47,29.38 -4.2,7.8 -9.92,13.85 -16.86,18.31 -7.03,4.42 -15.09,7.55 -24.18,9.44 -9.038,1.8 -18.94,2.76 -29.64,2.76 -7.019,0 -14.05,-0.76 -21.035,-2.21 -7.047,-1.48 -13.41,-4.09 -19.164,-7.78 -5.75,-3.65 -10.394,-8.31 -14.136,-13.86 -3.649,-5.49 -5.563,-12.56 -5.563,-21.03 0,-7.82 1.488,-14.08 4.496,-18.87 2.91,-4.81 8.719,-9.23 17.469,-13.32 8.633,-4.1 20.672,-8.11 35.973,-12.17 15.375,-4.09 35.39,-9.26 60.17,-15.53 7.37,-1.45 17.68,-4.17 30.8,-8.04 13.1,-3.89 26.11,-10.07 39.05,-18.58 12.91,-8.51 24.14,-19.83 33.55,-34.12 9.41,-14.18 14.13,-32.4 14.13,-54.6 0,-18.11 -3.49,-34.93 -10.56,-50.43 -7.03,-15.48 -17.42,-28.9 -31.31,-40.18 -13.84,-11.27 -31.01,-20.07 -51.49,-26.38 -20.59,-6.26 -44.34,-9.34 -71.274,-9.34 -21.785,0 -42.957,2.64 -63.473,7.98 -20.519,5.35 -38.644,13.77 -54.336,25.25 -15.714,11.44 -28.16,26.02 -37.418,43.81 -9.211,17.74 -13.687,38.78 -13.363,63.13 h 84.363 c 0,-13.24 2.352,-24.56 7.145,-33.75" /><path
         id="path80"
         style="fill:#ffffff;fill-opacity:1;fill-rule:nonzero;stroke:none"
         d="M 1528.93,1618.18 V 1545 h -208.95 v -84.78 h 191.77 v -67.64 h -191.77 v -97.04 h 213.43 v -73.19 h -300.46 v 395.83 h 295.98" /><path
         id="path82"
         style="fill:#ffffff;fill-opacity:1;fill-rule:nonzero;stroke:none"
         d="m 1713.54,1222.35 h -87.04 v 395.83 h 87.04 v -395.83" /><path
         id="path84"
         style="fill:#ffffff;fill-opacity:1;fill-rule:nonzero;stroke:none"
         d="m 2037.84,1618.18 c 17.71,0 33.71,-2.89 47.97,-8.58 14.23,-5.74 26.39,-13.57 36.55,-23.57 10.15,-10 17.92,-21.56 23.27,-34.64 5.35,-13.14 8.07,-27.27 8.07,-42.41 0,-23.32 -4.87,-43.43 -14.69,-60.42 -9.83,-17.01 -25.79,-29.98 -47.97,-38.81 v -1.17 c 10.76,-2.92 19.59,-7.42 26.68,-13.56 6.95,-6.1 12.7,-13.29 17.18,-21.59 4.4,-8.32 7.65,-17.43 9.66,-27.43 2.01,-9.99 3.37,-19.98 4.11,-29.98 0.41,-6.27 0.78,-13.66 1.15,-22.16 0.38,-8.52 1.02,-17.19 1.92,-26.07 0.97,-8.86 2.43,-17.25 4.46,-25.2 2.05,-7.95 5.09,-14.7 9.11,-20.24 h -87.01 c -4.78,12.57 -7.77,27.54 -8.86,44.93 -1.1,17.34 -2.78,34 -4.99,49.9 -2.97,20.67 -9.21,35.81 -18.83,45.44 -9.6,9.6 -25.29,14.41 -47.18,14.41 h -87.01 v -154.68 h -87.03 v 395.83 z m -31.08,-179.08 c 19.97,0 34.94,4.46 44.94,13.33 9.94,8.87 14.96,23.28 14.96,43.23 0,19.19 -5.02,33.2 -14.96,41.87 -10,8.68 -24.97,13.01 -44.94,13.01 h -95.33 V 1439.1 h 95.33" /><path
         id="path86"
         style="fill:#ffffff;fill-opacity:1;fill-rule:nonzero;stroke:none"
         d="m 2445.31,1618.18 c 18.86,0 36.04,-1.64 51.55,-4.97 15.49,-3.38 28.86,-8.8 39.95,-16.38 11.11,-7.59 19.7,-17.62 25.78,-30.19 6.09,-12.61 9.11,-28.13 9.11,-46.61 0,-19.95 -4.51,-36.57 -13.59,-49.86 -9.05,-13.32 -22.46,-24.25 -40.2,-32.72 24.45,-7.02 42.61,-19.31 54.62,-36.85 12.04,-17.58 18,-38.74 18,-63.51 0,-19.91 -3.85,-37.22 -11.62,-51.83 -7.73,-14.57 -18.21,-26.49 -31.29,-35.73 -13.11,-9.23 -28.17,-16.09 -44.93,-20.52 -16.86,-4.41 -34.12,-6.66 -51.84,-6.66 h -191.78 v 395.83 z m -11.11,-160.21 c 15.59,0 28.29,3.64 38.33,11.11 9.93,7.36 14.95,19.36 14.95,36.02 0,9.23 -1.73,16.82 -5.02,22.72 -3.33,5.9 -7.81,10.52 -13.35,13.85 -5.56,3.33 -11.88,5.62 -19.09,6.94 -7.23,1.28 -14.67,1.93 -22.43,1.93 h -81.48 v -92.57 z m 5.02,-167.98 c 8.51,0 16.64,0.81 24.33,2.54 7.81,1.64 14.63,4.37 20.59,8.22 5.89,3.94 10.63,9.2 14.08,15.86 3.53,6.67 5.3,15.14 5.3,25.5 0,20.31 -5.72,34.8 -17.18,43.52 -11.49,8.67 -26.6,13.04 -45.43,13.04 h -94.8 v -108.68 h 93.11" /><path
         id="path88"
         style="fill:#ffffff;fill-opacity:1;fill-rule:nonzero;stroke:none"
         d="m 303.793,1098.43 -87.57,-272.188 h -1.149 L 122.5,1098.43 H 0 V 702.629 h 81.4688 v 277.68 h 1.1054 l 97.0348,-277.68 h 67.047 l 97.051,280.5 h 1.063 v -280.5 h 81.574 V 1098.43 H 303.793" /><path
         id="path90"
         style="fill:#ffffff;fill-opacity:1;fill-rule:nonzero;stroke:none"
         d="M 700.156,1098.47 848.227,702.602 H 757.82 l -29.925,88.187 H 579.898 l -31.074,-88.187 h -87.551 l 149.672,395.868 z m 5.016,-242.841 -49.879,145.281 h -1.105 L 602.641,855.629 h 102.531" /><path
         id="path92"
         style="fill:#ffffff;fill-opacity:1;fill-rule:nonzero;stroke:none"
         d="m 800.496,1025.24 v 73.19 h 324.354 v -73.19 H 1006.22 V 702.629 H 919.145 V 1025.24 H 800.496" /><path
         id="path94"
         style="fill:#ffffff;fill-opacity:1;fill-rule:nonzero;stroke:none"
         d="m 1292.84,1098.47 92.57,-272.189 h 1.06 l 87.56,272.189 h 122.59 V 702.602 h -81.48 V 983.129 H 1514 l -96.97,-280.527 h -67.15 l -96.97,277.75 h -1.15 v -277.75 h -81.49 v 395.868 h 122.57" /><path
         id="path96"
         style="fill:#ffffff;fill-opacity:1;fill-rule:nonzero;stroke:none"
         d="m 1969.14,1098.47 v -73.19 h -208.99 v -84.819 h 191.81 v -67.609 h -191.81 v -97.043 h 213.49 v -73.207 h -300.51 v 395.868 h 296.01" /><path
         id="path98"
         style="fill:#ffffff;fill-opacity:1;fill-rule:nonzero;stroke:none"
         d="m 2286.27,992.84 c -5.14,8.31 -11.64,15.59 -19.41,21.93 -7.72,6.26 -16.52,11.11 -26.36,14.64 -9.81,3.49 -20.01,5.27 -30.69,5.27 -19.65,0 -36.3,-3.78 -49.95,-11.33 -13.7,-7.62 -24.8,-17.78 -33.21,-30.51 -8.55,-12.758 -14.74,-27.25 -18.63,-43.551 -3.86,-16.219 -5.83,-33.039 -5.83,-50.43 0,-16.66 1.97,-32.8 5.83,-48.488 3.89,-15.699 10.08,-29.859 18.63,-42.402 8.41,-12.567 19.51,-22.649 33.21,-30.219 13.65,-7.59 30.3,-11.359 49.95,-11.359 26.6,0 47.36,8.109 62.3,24.359 14.98,16.262 24.19,37.711 27.47,64.32 h 84.28 c -2.22,-24.73 -7.96,-47.101 -17.18,-67.09 -9.29,-19.949 -21.46,-36.921 -36.64,-50.941 -15.17,-14.09 -32.87,-24.797 -53.18,-32.148 -20.36,-7.481 -42.72,-11.121 -67.05,-11.121 -30.35,0 -57.6,5.25 -81.82,15.769 -24.24,10.57 -44.6,25.051 -61.24,43.551 -16.66,18.461 -29.4,40.152 -38.23,65.121 -8.88,24.93 -13.37,51.828 -13.37,80.648 0,29.59 4.49,57.012 13.37,82.34 8.83,25.331 21.57,47.411 38.23,66.241 16.64,18.87 37,33.64 61.24,44.41 24.22,10.67 51.47,16.05 81.82,16.05 21.79,0 42.33,-3.17 61.79,-9.43 19.39,-6.31 36.75,-15.42 52.09,-27.5 15.37,-12 28.02,-26.82 37.98,-44.61 10.02,-17.74 16.24,-38.059 18.86,-60.981 h -84.23 c -1.51,10 -4.89,19.152 -10.03,27.461" /><path
         id="path100"
         style="fill:#ffffff;fill-opacity:1;fill-rule:nonzero;stroke:none"
         d="m 2640.47,1098.47 148.07,-395.868 h -90.4 l -29.92,88.187 h -147.98 l -31.1,-88.187 h -87.55 l 149.67,395.868 z m 5.02,-242.841 -49.86,145.281 h -1.12 l -51.55,-145.281 h 102.53" /></g></g></svg>