<?xml version="1.0" encoding="UTF-8" standalone="no"?>
<!-- Created with Inkscape (http://www.inkscape.org/) -->

<svg
   xmlns:dc="http://purl.org/dc/elements/1.1/"
   xmlns:cc="http://creativecommons.org/ns#"
   xmlns:rdf="http://www.w3.org/1999/02/22-rdf-syntax-ns#"
   xmlns:svg="http://www.w3.org/2000/svg"
   xmlns="http://www.w3.org/2000/svg"
   xmlns:sodipodi="http://sodipodi.sourceforge.net/DTD/sodipodi-0.dtd"
   xmlns:inkscape="http://www.inkscape.org/namespaces/inkscape"
   width="105.6421mm"
   height="90.193314mm"
   viewBox="0 0 105.6421 90.193314"
   version="1.1"
   id="svg8"
   inkscape:version="0.92.3 (2405546, 2018-03-11)"
   sodipodi:docname="logo_sanstexte.svg"
   inkscape:export-filename="C:\Users\Denis\Documents\ENSEIRB\Assoc\Hackeirb 2k18\hckbdx2k18.png"
   inkscape:export-xdpi="300"
   inkscape:export-ydpi="300">
  <defs
     id="defs2">
    <clipPath
       id="clipPath831"
       clipPathUnits="userSpaceOnUse">
      <path
         inkscape:connector-curvature="0"
         id="path829"
         d="M 0,283.46 H 283.46 V 0 H 0 Z" />
    </clipPath>
    <clipPath
       id="clipPath843"
       clipPathUnits="userSpaceOnUse">
      <path
         inkscape:connector-curvature="0"
         id="path841"
         d="M 0,283.46 H 283.46 V 0 H 0 Z" />
    </clipPath>
    <clipPath
       id="clipPath879"
       clipPathUnits="userSpaceOnUse">
      <path
         inkscape:connector-curvature="0"
         id="path877"
         d="M 0,283.46 H 283.46 V 0 H 0 Z" />
    </clipPath>
    <clipPath
       id="clipPath895"
       clipPathUnits="userSpaceOnUse">
      <path
         inkscape:connector-curvature="0"
         id="path893"
         d="M 150.619,233.866 H 268.794 V 103.862 H 150.619 Z" />
    </clipPath>
  </defs>
  <sodipodi:namedview
     id="base"
     pagecolor="#ffffff"
     bordercolor="#666666"
     borderopacity="1.0"
     inkscape:pageopacity="0"
     inkscape:pageshadow="2"
     inkscape:zoom="1.0971342"
     inkscape:cx="87.624408"
     inkscape:cy="105.38876"
     inkscape:document-units="mm"
     inkscape:current-layer="layer1"
     showgrid="false"
     inkscape:pagecheckerboard="true"
     showborder="false"
     inkscape:window-width="1920"
     inkscape:window-height="1001"
     inkscape:window-x="-9"
     inkscape:window-y="-9"
     inkscape:window-maximized="1"
     fit-margin-top="0"
     fit-margin-left="0"
     fit-margin-right="0"
     fit-margin-bottom="0" />
  <metadata
     id="metadata5">
    <rdf:RDF>
      <cc:Work
         rdf:about="">
        <dc:format>image/svg+xml</dc:format>
        <dc:type
           rdf:resource="http://purl.org/dc/dcmitype/StillImage" />
        <dc:title></dc:title>
      </cc:Work>
    </rdf:RDF>
  </metadata>
  <g
     inkscape:label="Logo"
     inkscape:groupmode="layer"
     id="layer1"
     transform="translate(238.62763,-181.19111)">
    <path
       style="fill:#80b3ff;fill-opacity:1;fill-rule:nonzero;stroke:none;stroke-width:0.35277778"
       d="m -182.27415,181.19117 c -5.76864,0.01 -12.40574,1.19815 -18.93218,4.92735 h 6.11849 c -2.22685,1.27242 -4.44024,2.83008 -6.60218,4.75474 -1.21562,1.08221 -2.40997,2.30138 -3.58582,3.61736 h 6.36446 c -0.71776,0.80328 -1.4251,1.65492 -2.1239,2.55126 h -6.36447 c -1.7263,2.21432 -3.39772,4.6833 -4.97489,7.51324 -9.77124,17.53235 4.78266,-0.8444 4.78266,-0.8444 0,0 4.54341,-7.87388 6.69571,-6.18618 2.15335,1.687 2.87003,4.78062 3.10886,7.87342 0.23953,3.09317 4.06683,3.37462 5.26169,1.40612 1.19556,-1.96816 3.34862,-7.31073 4.30465,-5.90455 0.95603,1.40511 -0.18571,8.86994 2.1518,6.18567 3.00108,-3.44595 3.58785,3.37467 5.50096,0 1.02558,-1.8091 1.77955,-5.632 2.84479,-8.79585 2.32543,0.36776 8.32771,1.58649 11.51041,4.79506 2.77022,2.79325 6.31756,7.68477 6.40012,16.47289 h -5.39347 c 0.004,0.44965 -0.0108,0.92129 -0.0253,1.39165 h 5.39295 c -0.11032,3.57002 -0.75849,7.72273 -2.2319,12.60543 h 3.97184 c -0.002,0.006 -0.003,0.0122 -0.005,0.0186 -0.41955,1.38885 -0.89874,2.67931 -1.40458,3.92431 h -3.97238 c -3.06151,7.53512 -7.6136,12.51038 -12.67725,15.77992 h -3.39256 c -5.00236,3.22998 -10.48996,4.81971 -15.51689,5.5578 -9.05409,1.33059 -19.44139,-0.30645 -30.55731,-5.5578 h 3.39256 c -2.27412,-1.07433 -4.56711,-2.24519 -6.89828,-3.63337 -0.41781,-0.49647 -0.79603,-0.99008 -1.12913,-1.47847 0,0 1.26805,2.17845 3.83491,5.11184 h -3.39256 c 1.09463,1.25093 2.35833,2.59465 3.9703,4.03799 0.71624,0.79884 1.6035,1.62429 2.59777,2.45619 h 3.39256 c 4.30213,3.59953 11.07469,7.28696 19.09444,9.525 h 3.57342 c 8.69859,2.42747 18.84089,3.11922 28.95018,0 h -3.57343 c 5.80175,-1.79014 11.57513,-4.84396 17.04236,-9.525 h -3.39254 c 2.21152,-1.89351 4.37439,-4.03849 6.4642,-6.49418 h 3.39256 c 1.90225,-2.23528 3.75071,-4.69451 5.52162,-7.43624 1.80377,-2.85238 3.22199,-5.63121 4.35528,-8.34368 h 3.97237 c 0.55584,-1.33031 1.0617,-2.64865 1.47072,-3.94291 h -5.3e-4 -3.97187 c 1.40035,-4.43093 1.94893,-8.63797 1.87588,-12.60543 h -5.39296 c -0.009,-0.46482 -0.006,-0.93368 -0.032,-1.39165 h 5.39295 c -0.50634,-8.97095 -4.29406,-16.57382 -9.00616,-22.51542 h 6.36447 c -0.70527,-0.8893 -1.42009,-1.73968 -2.16005,-2.55126 h -6.36448 c -1.19605,-1.3118 -2.41411,-2.51737 -3.64783,-3.61736 -2.15697,-1.92311 -4.30266,-3.52458 -6.29989,-4.75474 h -6.11849 c -2.04996,-1.26264 -3.94039,-2.18487 -5.44876,-2.65566 -2.95574,-0.92245 -8.20296,-2.28216 -14.47922,-2.27169 z"
       id="path2038-8-0"
       inkscape:connector-curvature="0"
       inkscape:export-xdpi="400"
       inkscape:export-ydpi="400" />
    <path
       style="fill:#ff8080;fill-opacity:1;fill-rule:nonzero;stroke:none;stroke-width:0.35277778"
       d="m -190.64209,181.19117 c -5.76864,0.01 -12.40573,1.19815 -18.93217,4.92735 h 6.11848 c -2.22684,1.27242 -4.44024,2.83008 -6.60217,4.75474 -1.21562,1.08221 -2.40998,2.30138 -3.58583,3.61736 h 6.36447 c -0.71777,0.80328 -1.42511,1.65492 -2.1239,2.55126 h -6.36448 c -1.7263,2.21432 -3.39772,4.6833 -4.97489,7.51324 -9.77124,17.53235 4.78266,-0.8444 4.78266,-0.8444 0,0 4.54341,-7.87388 6.69572,-6.18618 2.15334,1.687 2.87003,4.78062 3.10885,7.87342 0.23953,3.09317 4.06684,3.37462 5.26169,1.40612 1.19557,-1.96816 3.34862,-7.31073 4.30466,-5.90455 0.95603,1.40511 -0.18572,8.86994 2.15179,6.18567 3.00109,-3.44595 3.58785,3.37467 5.50096,0 1.02558,-1.8091 1.77955,-5.632 2.84479,-8.79585 2.32543,0.36776 8.32771,1.58649 11.51041,4.79506 2.77022,2.79325 6.31756,7.68477 6.40012,16.47289 h -5.39347 c 0.004,0.44965 -0.0108,0.92129 -0.0253,1.39165 h 5.39295 c -0.11032,3.57002 -0.75849,7.72273 -2.2319,12.60543 h 3.97184 c -0.002,0.006 -0.003,0.0122 -0.005,0.0186 -0.41955,1.38885 -0.89874,2.67931 -1.40458,3.92431 h -3.97238 c -3.06151,7.53512 -7.6136,12.51038 -12.67725,15.77992 h -3.39256 c -5.00235,3.22998 -10.48996,4.81971 -15.51689,5.5578 -9.05409,1.33059 -19.44139,-0.30645 -30.55731,-5.5578 h 3.39256 c -2.27412,-1.07433 -4.56711,-2.24519 -6.89828,-3.63337 -0.41781,-0.49647 -0.79603,-0.99008 -1.12913,-1.47847 0,0 1.26805,2.17845 3.83491,5.11184 h -3.39256 c 1.09463,1.25093 2.35833,2.59465 3.9703,4.03799 0.71624,0.79884 1.6035,1.62429 2.59777,2.45619 h 3.39256 c 4.30213,3.59953 11.07469,7.28696 19.09444,9.525 h 3.57342 c 8.69859,2.42747 18.84089,3.11922 28.95018,0 h -3.57343 c 5.80175,-1.79014 11.57513,-4.84396 17.04236,-9.525 h -3.39254 c 2.21152,-1.89351 4.37439,-4.03849 6.4642,-6.49418 h 3.39256 c 1.90225,-2.23528 3.75071,-4.69451 5.52162,-7.43624 1.80377,-2.85238 3.22199,-5.63121 4.35528,-8.34368 h 3.97237 c 0.55584,-1.33031 1.0617,-2.64865 1.47072,-3.94291 h -5.3e-4 -3.97187 c 1.40034,-4.43093 1.94893,-8.63797 1.87588,-12.60543 h -5.39296 c -0.009,-0.46482 -0.006,-0.93368 -0.032,-1.39165 h 5.39295 c -0.50634,-8.97095 -4.29406,-16.57382 -9.00616,-22.51542 h 6.36447 c -0.70527,-0.8893 -1.42009,-1.73968 -2.16005,-2.55126 h -6.36448 c -1.19605,-1.3118 -2.41411,-2.51737 -3.64783,-3.61736 -2.15697,-1.92311 -4.30266,-3.52458 -6.29989,-4.75474 h -6.11849 c -2.04996,-1.26264 -3.94039,-2.18487 -5.44876,-2.65566 -2.95574,-0.92245 -8.20296,-2.28216 -14.47922,-2.27169 z"
       id="path2038-8-8"
       inkscape:connector-curvature="0"
       inkscape:export-xdpi="400"
       inkscape:export-ydpi="400" />
    <path
       style="fill:#ffffff;fill-opacity:1;fill-rule:nonzero;stroke:none;stroke-width:0.35277778"
       d="m -186.43679,181.19117 c -5.76864,0.01 -12.40574,1.19815 -18.93218,4.92735 h 6.11849 c -2.22685,1.27242 -4.44024,2.83008 -6.60218,4.75474 -1.21562,1.08221 -2.40997,2.30138 -3.58582,3.61736 h 6.36446 c -0.71776,0.80328 -1.4251,1.65492 -2.1239,2.55126 h -6.36447 c -1.7263,2.21432 -3.39772,4.6833 -4.97489,7.51324 -9.77124,17.53235 4.78266,-0.8444 4.78266,-0.8444 0,0 4.54341,-7.87388 6.69571,-6.18618 2.15335,1.687 2.87003,4.78062 3.10886,7.87342 0.23953,3.09317 4.06683,3.37462 5.26169,1.40612 1.19556,-1.96816 3.34862,-7.31073 4.30465,-5.90455 0.95603,1.40511 -0.18571,8.86994 2.1518,6.18567 3.00108,-3.44595 3.58785,3.37467 5.50096,0 1.02558,-1.8091 1.77955,-5.632 2.84479,-8.79585 2.32543,0.36776 8.32771,1.58649 11.51041,4.79506 2.77022,2.79325 6.31756,7.68477 6.40012,16.47289 h -5.39347 c 0.004,0.44965 -0.0108,0.92129 -0.0253,1.39165 h 5.39295 c -0.11032,3.57002 -0.75849,7.72273 -2.2319,12.60543 h 3.97184 c -0.002,0.006 -0.003,0.0122 -0.005,0.0186 -0.41955,1.38885 -0.89874,2.67931 -1.40458,3.92431 h -3.97237 c -3.06152,7.53512 -7.61361,12.51038 -12.67726,15.77992 h -3.39255 c -5.00236,3.22998 -10.48996,4.81971 -15.51689,5.5578 -9.05409,1.33059 -19.44139,-0.30645 -30.55731,-5.5578 h 3.39256 c -2.27412,-1.07433 -4.56711,-2.24519 -6.89828,-3.63337 -0.41781,-0.49647 -0.79603,-0.99008 -1.12913,-1.47847 0,0 1.26805,2.17845 3.83491,5.11184 h -3.39256 c 1.09463,1.25093 2.35833,2.59465 3.9703,4.03799 0.71624,0.79884 1.6035,1.62429 2.59777,2.45619 h 3.39256 c 4.30213,3.59953 11.07469,7.28696 19.09444,9.525 h 3.57342 c 8.69859,2.42747 18.84089,3.11922 28.95018,0 h -3.57343 c 5.80175,-1.79014 11.57513,-4.84396 17.04236,-9.525 h -3.39254 c 2.21152,-1.89351 4.37439,-4.03849 6.4642,-6.49418 h 3.39256 c 1.90225,-2.23528 3.75071,-4.69451 5.52162,-7.43624 1.80377,-2.85238 3.22199,-5.63121 4.35528,-8.34368 h 3.97237 c 0.55584,-1.33031 1.0617,-2.64865 1.47072,-3.94291 h -5.1e-4 -3.97187 c 1.40034,-4.43093 1.94892,-8.63797 1.87587,-12.60543 h -5.39295 c -0.009,-0.46482 -0.006,-0.93368 -0.032,-1.39165 h 5.39295 c -0.50636,-8.97095 -4.29408,-16.57382 -9.00618,-22.51542 h 6.36447 c -0.70527,-0.8893 -1.42009,-1.73968 -2.16005,-2.55126 h -6.36448 c -1.19605,-1.3118 -2.41411,-2.51737 -3.64783,-3.61736 -2.15697,-1.92311 -4.30266,-3.52458 -6.29989,-4.75474 h -6.11849 c -2.04996,-1.26264 -3.94039,-2.18487 -5.44876,-2.65566 -2.95574,-0.92245 -8.20296,-2.28216 -14.47922,-2.27169 z"
       id="path2038-8"
       inkscape:connector-curvature="0"
       inkscape:export-xdpi="400"
       inkscape:export-ydpi="400" />
  </g>
  <g
     inkscape:groupmode="layer"
     id="layer2"
     inkscape:label="Texte"
     transform="translate(238.62763,-181.19111)" />
</svg>
