<svg xmlns="http://www.w3.org/2000/svg" viewBox="0 0 798.2 234.2"><defs><style>.cls-1{fill:#fff;}</style></defs><title>Fichier 1</title><g id="Calque_2" data-name="Calque 2"><g id="logo-text"><path class="cls-1" d="M160,62.8v55.3a54.32,54.32,0,0,0-85.8,0V62.8H62.9V171.4H74.3V154.3h.1a27.15,27.15,0,0,1-.1-2.9,42.9,42.9,0,0,1,85.8,0,28.1,28.1,0,0,1-.1,2.9h.1v17.1h11.4V62.8Zm0,0v55.3a54.32,54.32,0,0,0-85.8,0V62.8H62.9V171.4H74.3V154.3h.1a27.15,27.15,0,0,1-.1-2.9,42.9,42.9,0,0,1,85.8,0,28.1,28.1,0,0,1-.1,2.9h.1v17.1h11.4V62.8ZM117.1,0A117.1,117.1,0,1,0,234.2,117.1,117.13,117.13,0,0,0,117.1,0Zm0,222.8A105.7,105.7,0,1,1,222.8,117.1,105.67,105.67,0,0,1,117.1,222.8ZM160,118.1a54.32,54.32,0,0,0-85.8,0V62.8H62.9V171.4H74.3V154.3h.1a27.15,27.15,0,0,1-.1-2.9,42.9,42.9,0,0,1,85.8,0,28.1,28.1,0,0,1-.1,2.9h.1v17.1h11.4V62.8H160Z"/><path class="cls-1" d="M361.1,62.8H342.7v44.8H292.9V62.8H274.3v109h18.6V124.5h49.8v47.3h18.4Zm52.6,32.8c-21.6,0-36.7,16.5-36.7,39s14.9,38.7,38.1,38.7c13.8,0,23.6-4.6,31.1-13.5l-12.3-10.1c-3.4,4.7-9.8,8.6-18.6,8.6-12.5,0-19.6-6.5-20.1-18.4h52.9v-6.2c0-20.9-11.3-38.1-34.4-38.1Zm-.3,14.2c10.7,0,16.7,7.1,17.1,17.3H395.1c.6-10.3,7.8-17.3,18.3-17.3Zm31.3-43.6H424L403.8,86.5h16.7l24.2-20.3Zm58.5,29.4c-11,0-18.4,4.7-22.6,10.1l-.7-8.6H463.8v74.7h17.8V122.7c4-5.5,9.1-10.4,16.7-10.4,8.8,0,14,6.8,14,16.8v42.7h18V126.4c0-1-.1-2.2-.1-3.4,3.9-5.8,9.2-10.7,16.8-10.7,8.8,0,14,6.8,14,16.8v42.7h18V128.1c0-19.6-9.8-32.5-27.1-32.5-12,0-20.2,5.5-25.7,13.2-4.5-8.3-12.3-13.2-23-13.2Zm125.5,0c-21.6,0-36.7,16.5-36.7,39s14.9,38.7,38.1,38.7c13.8,0,23.6-4.6,31.1-13.5l-12.3-10.1c-3.4,4.7-9.8,8.6-18.6,8.6-12.5,0-19.6-6.5-20.1-18.4H663v-6.2c0-20.9-11.3-38.1-34.3-38.1Zm-.3,14.2c10.7,0,16.7,7.1,17.1,17.3H610.1c.6-10.3,7.8-17.3,18.3-17.3Zm31.2-43.6H639L618.8,86.5h16.7l24.1-20.3Zm58.2,29.4c-10.7,0-18.3,5.5-22,11.4l-.9-9.9H678.8v74.7h17.8V124.7c4.8-6.5,10.6-11.3,19.6-11.3h1.5l.1-17.8Zm40.4,0c-20.4,0-34.2,16.3-34.2,38.8s13.8,38.8,34.2,38.8c11.3,0,18.9-4.6,23-10.2l.9,8.7h16.1V97.1H782.1l-.9,8.7c-4.1-5.6-11.7-10.2-23-10.2Zm3.9,15.7c8.9,0,14.3,4.7,18.3,11.1v24c-4,6.4-9.4,11.1-18.3,11.1-11.6,0-19.9-9.1-19.9-23.1s8.3-23.1,19.9-23.1Z"/></g></g></svg>