<?xml version="1.0" encoding="UTF-8" standalone="no"?>
<!-- Generator: Adobe Illustrator 23.0.0, SVG Export Plug-In . SVG Version: 6.00 Build 0)  -->

<svg
   xmlns:dc="http://purl.org/dc/elements/1.1/"
   xmlns:cc="http://creativecommons.org/ns#"
   xmlns:rdf="http://www.w3.org/1999/02/22-rdf-syntax-ns#"
   xmlns:svg="http://www.w3.org/2000/svg"
   xmlns="http://www.w3.org/2000/svg"
   xmlns:sodipodi="http://sodipodi.sourceforge.net/DTD/sodipodi-0.dtd"
   xmlns:inkscape="http://www.inkscape.org/namespaces/inkscape"
   version="1.1"
   id="Calque_1"
   x="0px"
   y="0px"
   viewBox="0 0 652.65002 82.989998"
   xml:space="preserve"
   sodipodi:docname="sopra_steria.svg"
   inkscape:version="0.92.3 (2405546, 2018-03-11)"
   width="652.65002"
   height="82.989998"><metadata
   id="metadata45"><rdf:RDF><cc:Work
       rdf:about=""><dc:format>image/svg+xml</dc:format><dc:type
         rdf:resource="http://purl.org/dc/dcmitype/StillImage" /><dc:title></dc:title></cc:Work></rdf:RDF></metadata><defs
   id="defs43" /><sodipodi:namedview
   pagecolor="#ffffff"
   bordercolor="#666666"
   borderopacity="1"
   objecttolerance="10"
   gridtolerance="10"
   guidetolerance="10"
   inkscape:pageopacity="0"
   inkscape:pageshadow="2"
   inkscape:window-width="2736"
   inkscape:window-height="1695"
   id="namedview41"
   showgrid="false"
   inkscape:pagecheckerboard="true"
   inkscape:zoom="1.3373134"
   inkscape:cx="271.0738"
   inkscape:cy="52.00726"
   inkscape:window-x="0"
   inkscape:window-y="55"
   inkscape:window-maximized="1"
   inkscape:current-layer="Calque_1"
   fit-margin-top="0"
   fit-margin-left="0"
   fit-margin-right="0"
   fit-margin-bottom="0" />
<style
   type="text/css"
   id="style2">
	.st0{fill:#EF7D00;}
	.st1{fill:#D5121E;}
</style>
<path
   class="st0"
   d="m 354.89,67.58 c -0.54,0.36 -1.19,0.76 -1.78,1.1 l -0.18,0.11 0.18,0.02 c 11.65,3.2 23.19,3.08 25.4,-4.19 2.86,-9.38 -15.67,-19.45 -24.42,-24.25 -1.87,-1.03 -2.69,-0.39 -1.49,0.99 5.52,6.36 13.39,18.87 2.29,26.22 z"
   id="path4"
   style="fill:#ffffff;fill-opacity:1"
   inkscape:connector-curvature="0" />
<g
   id="g20"
   style="fill:#ffffff;fill-opacity:1"
   transform="translate(-50.55,-52.25)">
	<path
   d="m 505.88,78.68 h -9.82 v -8.22 h 9.82 v -12.2 h 9.52 v 12.19 h 15.66 v 8.22 H 515.4 v 24.75 c 0,6.19 1.73,9.44 9.66,9.44 3.04,0 6.44,-0.87 6.44,-0.87 v 8.57 c -3.31,0.45 -5.71,0.71 -9.46,0.71 -14.99,0 -16.15,-10.8 -16.15,-16.73 V 78.68 Z"
   id="path6"
   style="fill:#ffffff;fill-opacity:1"
   inkscape:connector-curvature="0" />
	<rect
   x="632.31"
   y="70.410004"
   width="9.75"
   height="50.990002"
   id="rect8"
   style="fill:#ffffff;fill-opacity:1" />
	<path
   d="m 659.27,95.53 c 0,13.89 11.44,17.35 16.87,17.35 10.35,0 17.66,-5.85 17.66,-17.55 0,-11.7 -8.3,-17.06 -17.75,-17.06 -5.37,0 -16.78,3.15 -16.78,17.26 z m -9.9,-0.11 c 0,-19.18 15.5,-25.69 26.27,-25.69 12.23,0 18.16,7.01 18.16,7.01 l 0.5,-6.34 h 8.9 v 51.09 h -8.92 l -0.49,-6.75 c 0,0 -6.1,6.76 -18.27,6.76 -12.21,0.01 -26.15,-7.08 -26.15,-26.08 z"
   id="path10"
   style="fill:#ffffff;fill-opacity:1"
   inkscape:connector-curvature="0" />
	<path
   d="m 643.56,58.63 c 0,-3.52 -2.85,-6.38 -6.37,-6.38 -3.52,0 -6.38,2.86 -6.38,6.38 0,3.52 2.86,6.38 6.38,6.38 3.52,0 6.37,-2.85 6.37,-6.38 z"
   id="path12"
   style="fill:#ffffff;fill-opacity:1"
   inkscape:connector-curvature="0" />
	<path
   d="m 625.19,79.17 v -8.63 c -9.63,-0.88 -16.38,1.43 -21.65,6.93 l -0.51,-7.03 h -9.24 v 51.03 h 9.75 V 95.02 c 0,-7.37 5.95,-16.73 21.65,-15.85 z"
   id="path14"
   style="fill:#ffffff;fill-opacity:1"
   inkscape:connector-curvature="0" />
	<path
   d="m 533.4,95.62 c 0,-15.95 11.79,-26.19 27.53,-26.19 15.64,0 26.39,11.43 26.39,25.31 0,0 0,2.17 -0.21,4.13 l -43.58,0.19 c 0.42,7.88 9.51,13.82 18.89,13.82 10.1,0 16.09,-6.25 16.09,-6.25 l 6.97,6.13 c -7.08,6.79 -14.8,8.86 -23.06,8.86 -17.19,0 -29.04,-10.04 -29.04,-25.6 v -0.4 z m 43.22,-4.38 c 0,-6.93 -6.98,-12.71 -15.55,-12.71 -9.18,0 -16.77,5.66 -17.38,12.71 z"
   id="path16"
   style="fill:#ffffff;fill-opacity:1"
   inkscape:connector-curvature="0" />
	<path
   d="m 475.2,91.03 c -9.81,-1.75 -19.46,-2.98 -19.46,-7.55 0,-2.98 2.96,-5.6 11.55,-5.6 6.38,0 13.75,1.48 15.74,6 l 9.05,-3.8 c -3.46,-6.95 -13.7,-10.3 -25.47,-10.3 -10.29,0 -21.33,3.89 -21.33,14.31 0,9.02 8.21,11.82 21.74,14.37 9.04,1.7 17.38,2.56 17.38,7.44 0,3.08 -4.1,7.02 -14.36,7.02 -7.29,0 -14.64,-1.53 -16.89,-6.72 l -8.77,3.68 c 3.6,8.02 13.14,12.16 24.2,12.16 22.08,0 26.35,-10.51 26.35,-16.47 0.01,-9.94 -9.87,-12.78 -19.73,-14.54 z"
   id="path18"
   style="fill:#ffffff;fill-opacity:1"
   inkscape:connector-curvature="0" />
</g>
<path
   d="m 143.77,26.02 c -9.45,0 -17.75,5.36 -17.75,17.06 0,11.7 7.3,17.55 17.65,17.55 5.42,0 16.87,-2.2 16.87,-17.35 0,-15.16 -11.41,-17.26 -16.77,-17.26 z m 0.51,43.24 c -12.21,0 -18.26,-7.76 -18.26,-7.76 v 21.49 h -9.41 V 18.16 h 8.9 l 0.51,6.34 c 0,0 5.92,-7.01 18.16,-7.01 10.77,0 26.27,5.49 26.27,25.69 -0.01,20.19 -13.96,26.08 -26.17,26.08 z"
   id="path22"
   style="fill:#ffffff;fill-opacity:1"
   inkscape:connector-curvature="0" />
<path
   d="m 217.02,43.28 c 0,13.89 11.44,17.35 16.87,17.35 10.35,0 17.65,-5.85 17.65,-17.55 0,-11.7 -8.3,-17.06 -17.75,-17.06 -5.36,0 -16.77,3.15 -16.77,17.26 z m -9.91,-0.11 c 0,-19.18 15.5,-25.69 26.27,-25.69 12.23,0 18.16,7.01 18.16,7.01 l 0.5,-6.34 h 8.91 v 51.09 h -8.88 l -0.53,-6.75 c 0,0 -6.1,6.76 -18.27,6.76 -12.21,0.01 -26.16,-7.08 -26.16,-26.08 z"
   id="path24"
   style="fill:#ffffff;fill-opacity:1"
   inkscape:connector-curvature="0" />
<path
   d="m 207.82,26.92 v -8.63 c -9.62,-0.88 -16.38,1.43 -21.65,6.93 l -0.5,-7.03 h -9.25 v 51.03 h 9.75 V 42.77 c 0,-7.37 5.95,-16.73 21.65,-15.85 z"
   id="path26"
   style="fill:#ffffff;fill-opacity:1"
   inkscape:connector-curvature="0" />
<path
   d="M 30.81,38.78 C 21,37.03 11.35,35.8 11.35,31.23 c 0,-2.98 2.96,-5.6 11.55,-5.6 6.38,0 13.75,1.48 15.74,6 l 9.05,-3.8 c -3.46,-6.95 -13.7,-10.3 -25.47,-10.3 -10.29,0 -21.33,3.89 -21.33,14.31 0,9.02 8.21,11.82 21.75,14.37 9.04,1.7 17.38,2.56 17.38,7.44 0,3.08 -4.11,7.02 -14.36,7.02 -7.29,0 -14.65,-1.53 -16.89,-6.72 L 0,57.63 c 3.59,8.02 13.14,12.16 24.2,12.16 22.08,0 26.35,-10.51 26.35,-16.47 0,-9.94 -9.88,-12.78 -19.74,-14.54 z"
   id="path28"
   style="fill:#ffffff;fill-opacity:1"
   inkscape:connector-curvature="0" />
<path
   d="m 82.92,17.49 c -13.04,0 -28.47,6.51 -28.47,25.69 0,18.99 13.89,26.37 28.47,26.37 14.58,0 28.47,-7.38 28.47,-26.37 C 111.4,24 95.96,17.49 82.92,17.49 Z m 0,43.14 c -8.01,0 -18.57,-3.46 -18.57,-17.35 0,-14.11 11.71,-16.98 18.57,-16.98 6.86,0 18.57,2.87 18.57,16.98 0,13.89 -10.55,17.35 -18.57,17.35 z"
   id="path30"
   style="fill:#ffffff;fill-opacity:1"
   inkscape:connector-curvature="0" />
<path
   class="st1"
   d="m 352.94,68.79 c 0,0 -14.67,9.22 -40.56,9.22 -10.03,0 -18.47,-1.54 -22.04,-5.05 -3.76,-3.7 -5.8,-9.93 -5.8,-15.66 0,-4.91 2.04,-9.04 6.29,-9.04 10.91,0 44.91,17.29 62.11,20.53 z"
   id="path32"
   style="fill:#ffffff;fill-opacity:1"
   inkscape:connector-curvature="0" />
<g
   id="g38"
   style="fill:#ffffff;fill-opacity:1"
   transform="translate(-50.55,-52.25)">
	<path
   class="st0"
   d="m 354.6,67.58 c 0.54,-0.36 1.19,-0.76 1.78,-1.1 l 0.18,-0.11 -0.18,-0.02 c -11.65,-3.2 -23.19,-3.08 -25.4,4.19 -2.86,9.38 15.67,19.45 24.42,24.25 1.87,1.03 2.69,0.39 1.49,-0.99 -5.52,-6.36 -13.39,-18.88 -2.29,-26.22 z"
   id="path34"
   style="fill:#ffffff;fill-opacity:1"
   inkscape:connector-curvature="0" />
	<path
   class="st1"
   d="m 356.56,66.37 c 0,0 14.67,-9.22 40.56,-9.22 10.03,0 18.47,1.54 22.04,5.05 3.76,3.7 5.8,9.93 5.8,15.66 0,4.91 -2.04,9.04 -6.29,9.04 -10.92,0 -44.92,-17.3 -62.11,-20.53 z"
   id="path36"
   style="fill:#ffffff;fill-opacity:1"
   inkscape:connector-curvature="0" />
</g>
</svg>